<svg width="40" height="40" viewBox="0 0 40 40" fill="none" xmlns="http://www.w3.org/2000/svg">
<rect width="40" height="40" rx="8" fill="#374956"/>
<path d="M33.3459 11.6753H25.9995V10H33.3459V11.6753Z" fill="#17C3B2"/>
<path d="M20.7562 26.7009V19.393C20.7562 17.0255 19.6179 15.3636 17.3643 15.3636C15.1784 15.3636 13.9719 17.0024 13.9719 19.4385V26.7009H12.3785V19.4158C12.3785 16.9797 11.1947 15.3636 8.98574 15.3636C6.77756 15.3636 5.59419 16.9797 5.59419 19.4158V26.7009H4V14.2479H5.59419V15.6819C6.34525 14.4981 7.61988 13.9292 8.98574 13.9292C10.7843 13.9292 12.2873 14.7715 13.175 16.3194C14.154 14.7942 15.543 13.9292 17.3643 13.9292C20.5741 13.9292 22.3496 16.2967 22.3496 19.2337V26.7009H20.7562Z" fill="white"/>
<path d="M34.6345 19.4727C34.1795 16.9685 32.1988 15.2157 29.7396 15.2157C27.4183 15.2157 25.3463 16.8999 24.9136 19.4727H34.6345ZM24.9136 20.9071C25.0499 23.3886 27.327 25.4147 29.7396 25.4147C31.6752 25.4147 33.5188 24.2995 34.2018 22.4778H35.8868C34.9305 25.1641 32.4263 26.8491 29.7627 26.8491C26.2337 26.8491 23.2744 23.9803 23.2744 20.3377C23.2744 16.7179 26.2568 13.7813 29.7396 13.7813C33.4738 13.7813 36.2737 16.9912 36.2737 20.429C36.2737 20.5884 36.2514 20.7477 36.2514 20.9071H24.9136Z" fill="white"/>
</svg>
