<svg width="500" height="500" viewBox="0 0 500 500" fill="none" xmlns="http://www.w3.org/2000/svg">
<path d="M55.4803 273.73C55.4803 273.73 57.8003 345.73 117.91 393.73C178.02 441.73 261.32 445.16 328.75 449.73C396.18 454.3 447.98 416.11 455.75 358.41C463.52 300.71 412.03 283.77 384.07 218.08C356.11 152.39 358.64 130.8 299.49 90.4002C240.34 50.0002 147.8 74.8102 99.2903 144C50.7803 213.19 55.4803 273.73 55.4803 273.73Z" fill="#17C3B2"/>
<path opacity="0.8" d="M55.4803 273.73C55.4803 273.73 57.8003 345.73 117.91 393.73C178.02 441.73 261.32 445.16 328.75 449.73C396.18 454.3 447.98 416.11 455.75 358.41C463.52 300.71 412.03 283.77 384.07 218.08C356.11 152.39 358.64 130.8 299.49 90.4002C240.34 50.0002 147.8 74.8102 99.2903 144C50.7803 213.19 55.4803 273.73 55.4803 273.73Z" fill="white"/>
<path d="M62.97 179.69V153.92C62.97 135.68 78.13 120.84 96.76 120.84C115.39 120.84 130.55 135.68 130.55 153.92V179.69H144.02V153.92C144.02 128.41 122.82 107.65 96.76 107.65C70.7 107.65 49.5 128.41 49.5 153.92V179.69H62.97Z" stroke="#374956" stroke-width="2" stroke-linecap="round" stroke-linejoin="round"/>
<path d="M147.68 179.87H44.5V265.22H147.68V179.87Z" stroke="#374956" stroke-width="2" stroke-linecap="round" stroke-linejoin="round"/>
<path d="M106.82 215.32C106.732 212.398 105.511 209.625 103.413 207.59C101.316 205.554 98.5076 204.415 95.5846 204.415C92.6616 204.415 89.8536 205.554 87.7561 207.59C85.6587 209.625 84.4368 212.398 84.3496 215.32C84.3617 217.317 84.9172 219.273 85.9566 220.978C86.996 222.684 88.4801 224.074 90.2496 225L88.3596 244.38H102.81L100.92 225C102.689 224.074 104.173 222.684 105.213 220.978C106.252 219.273 106.808 217.317 106.82 215.32Z" stroke="#374956" stroke-width="2" stroke-linecap="round" stroke-linejoin="round"/>
<path d="M232.64 267.99L206.95 266.3V265.88L203.79 266.09L200.64 265.88V266.3L174.95 267.99L156 423.79H174.95L203.16 299.57H204.43L232.64 423.79H251.59L232.64 267.99Z" fill="#374956" stroke="#374956" stroke-width="1.16634" stroke-linecap="round" stroke-linejoin="round"/>
<path d="M156 423.78L151.37 430.94L137.05 437.26C136.296 437.677 135.665 438.286 135.223 439.025C134.78 439.765 134.541 440.608 134.53 441.47V446.94H175.37C175.611 443.998 175.611 441.042 175.37 438.1C174.95 433.89 174.95 423.78 174.95 423.78H156Z" fill="#17C3B2" stroke="#374956" stroke-width="1.16634" stroke-linecap="round" stroke-linejoin="round"/>
<path d="M134.53 442.31V446.94H175.37C175.37 446.94 175.56 444.94 175.56 442.31H134.53Z" fill="#374956" stroke="#374956" stroke-width="1.16634" stroke-linecap="round" stroke-linejoin="round"/>
<path d="M251.51 423.78L256.14 430.94L270.46 437.26C271.215 437.677 271.845 438.286 272.288 439.025C272.731 439.765 272.97 440.608 272.98 441.47V446.94H232.14C231.9 443.998 231.9 441.042 232.14 438.1C232.56 433.89 232.56 423.78 232.56 423.78H251.51Z" fill="#17C3B2" stroke="#374956" stroke-width="1.16634" stroke-linecap="round" stroke-linejoin="round"/>
<path d="M273 442.31V446.94H232.14C232.14 446.94 231.96 444.94 231.95 442.31H273Z" fill="#374956" stroke="#374956" stroke-width="1.16634" stroke-linecap="round" stroke-linejoin="round"/>
<path d="M164.07 195.51C164.07 195.51 134.07 237.67 134.07 240.76C134.07 243.85 138.84 267.71 146.42 269.95C154 272.19 158.21 268.27 159.61 260.41C161.01 252.55 156.24 241.32 156.24 241.32L170.24 228.69L164.07 195.51Z" fill="#17C3B2" stroke="#374956" stroke-width="1.16634" stroke-linecap="round" stroke-linejoin="round"/>
<path d="M158.25 259.29C158.25 259.29 166.95 257.88 169.2 258.44C171.45 259 173.13 264.34 173.13 264.34C173.13 264.34 173.97 272.2 172.56 273.88C171.15 275.56 164.42 277.53 161.62 278.09C158.82 278.65 152.91 272.2 150.62 268.27C148.33 264.34 152.35 257.6 158.25 259.29Z" fill="white" stroke="#374956" stroke-width="1.16634" stroke-linecap="round" stroke-linejoin="round"/>
<path d="M170.38 193.6L164.07 195.51L174.01 261.86H233.09L242.08 195.89L234.05 192.83L204.41 186.33L170.38 193.6Z" fill="#17C3B2" stroke="#374956" stroke-width="1.16634" stroke-linecap="round" stroke-linejoin="round"/>
<path d="M236.34 215.78L235.01 225.34L224.68 227.82L214.16 223.62L214.93 215.01L236.34 215.78Z" fill="#374956" stroke="#374956" stroke-width="1.16634" stroke-linecap="round" stroke-linejoin="round"/>
<path d="M225.35 225.34C226.355 225.34 227.17 224.525 227.17 223.52C227.17 222.515 226.355 221.7 225.35 221.7C224.345 221.7 223.53 222.515 223.53 223.52C223.53 224.525 224.345 225.34 225.35 225.34Z" fill="#3A5364" stroke="#374956" stroke-width="1.16634" stroke-linecap="round" stroke-linejoin="round"/>
<path d="M198.1 198.57L203.65 205.07L196.57 250.19L204.03 262.05L212.83 249.62L205.37 205.26L211.68 199.14L204.99 190.54L198.1 198.57Z" fill="#374956" stroke="#374956" stroke-width="1.16634" stroke-linecap="round" stroke-linejoin="round"/>
<path d="M192.75 187.29L167.32 193.6L168.09 196.66L192.94 189.77L192.75 187.29Z" fill="#374956" stroke="#374956" stroke-width="1.16634" stroke-linecap="round" stroke-linejoin="round"/>
<path d="M213.59 186.52L239.02 192.83L238.26 195.89L213.4 189.01L213.59 186.52Z" fill="#374956" stroke="#374956" stroke-width="1.16634" stroke-linecap="round" stroke-linejoin="round"/>
<path d="M239 192.83C239 192.83 248.62 195 254.51 198.37C260.4 201.74 261.81 209.32 258.44 217.74C255.07 226.16 244.69 225.04 239.92 222.74C235.15 220.44 233.74 212.08 234.58 208.43" fill="#17C3B2"/>
<path d="M239 192.83C239 192.83 248.62 195 254.51 198.37C260.4 201.74 261.81 209.32 258.44 217.74C255.07 226.16 244.69 225.04 239.92 222.74C235.15 220.44 233.74 212.08 234.58 208.43" stroke="#374956" stroke-width="1.16634" stroke-linecap="round" stroke-linejoin="round"/>
<path d="M193.9 184.04L191.03 185.95L191.79 205.26L204.22 196.47L217.22 205.45L218.37 186.33L214.93 183.46L193.9 184.04Z" fill="#17C3B2" stroke="#374956" stroke-width="1.16634" stroke-linecap="round" stroke-linejoin="round"/>
<path d="M219 161.07C219 161.07 226.06 159.35 227.39 152.29C228.72 145.23 216 136.64 207.18 135.12C198.36 133.6 185.43 142.75 183.33 149.05C181.23 155.35 189.43 161.64 198.21 162.98C206.99 164.32 219 161.07 219 161.07Z" fill="#374956" stroke="#374956" stroke-width="1.16634" stroke-linecap="round" stroke-linejoin="round"/>
<path d="M192.681 162.22C192.681 162.22 188.861 156.3 187.911 161.45C186.961 166.6 190.961 168.89 192.681 168.7C194.401 168.51 192.681 162.22 192.681 162.22Z" fill="white" stroke="#374956" stroke-width="1.16634" stroke-linecap="round" stroke-linejoin="round"/>
<path d="M217.491 162.22C217.491 162.22 221.311 156.3 222.261 161.45C223.211 166.6 219.261 168.89 217.491 168.7C215.721 168.51 217.491 162.22 217.491 162.22Z" fill="white" stroke="#374956" stroke-width="1.16634" stroke-linecap="round" stroke-linejoin="round"/>
<path d="M193.521 173.9V186.52L204.221 196.47L216.271 186.14V174.29L193.521 173.9Z" fill="white" stroke="#374956" stroke-width="1.16634" stroke-linecap="round" stroke-linejoin="round"/>
<path d="M191.921 158.4C191.921 158.4 191.341 170.23 192.301 174.05C193.261 177.87 199.551 185.88 204.511 187.6C209.471 189.32 216.341 179.01 217.871 175.6C219.401 172.19 218.821 157.66 218.821 157.66C218.821 157.66 216.731 152.66 212.531 151.18C208.331 149.7 195.351 147 191.921 158.4Z" fill="white" stroke="#374956" stroke-width="1.16634" stroke-linecap="round" stroke-linejoin="round"/>
<path d="M198.931 163.55C198.933 163.55 198.952 163.549 198.99 163.578C199.032 163.61 199.089 163.67 199.146 163.772C199.263 163.979 199.351 164.299 199.351 164.68C199.351 165.06 199.263 165.38 199.146 165.587C199.089 165.689 199.032 165.75 198.99 165.781C198.952 165.81 198.933 165.81 198.931 165.81C198.928 165.81 198.909 165.81 198.871 165.781C198.829 165.75 198.773 165.689 198.715 165.587C198.598 165.38 198.511 165.06 198.511 164.68C198.511 164.299 198.598 163.979 198.715 163.772C198.773 163.67 198.829 163.61 198.871 163.578C198.909 163.549 198.928 163.55 198.931 163.55Z" fill="#374956" stroke="#374956"/>
<path d="M210.641 163.55C210.643 163.55 210.661 163.549 210.7 163.578C210.742 163.61 210.799 163.67 210.856 163.772C210.973 163.979 211.061 164.299 211.061 164.68C211.061 165.06 210.973 165.38 210.856 165.587C210.799 165.689 210.742 165.75 210.7 165.781C210.661 165.81 210.643 165.81 210.641 165.81C210.638 165.81 210.619 165.81 210.581 165.781C210.539 165.75 210.482 165.689 210.425 165.587C210.308 165.38 210.221 165.06 210.221 164.68C210.221 164.299 210.308 163.979 210.425 163.772C210.483 163.67 210.539 163.61 210.581 163.578C210.619 163.549 210.638 163.55 210.641 163.55Z" fill="#374956" stroke="#374956"/>
<path d="M201.84 169.24C201.652 169.195 201.456 169.193 201.267 169.235C201.078 169.276 200.901 169.36 200.75 169.48C200.598 169.6 200.475 169.752 200.391 169.926C200.307 170.1 200.263 170.291 200.263 170.485C200.263 170.678 200.307 170.869 200.391 171.043C200.475 171.217 200.598 171.369 200.75 171.489C200.901 171.609 201.078 171.693 201.267 171.735C201.456 171.776 201.652 171.774 201.84 171.73C202.242 171.738 202.634 171.607 202.95 171.36C203.245 171.707 203.612 171.988 204.024 172.182C204.437 172.377 204.886 172.482 205.342 172.489C205.798 172.497 206.25 172.407 206.669 172.226C207.088 172.045 207.463 171.777 207.77 171.44C208.067 171.633 208.415 171.734 208.77 171.73C208.958 171.774 209.154 171.776 209.343 171.735C209.532 171.693 209.709 171.609 209.86 171.489C210.012 171.369 210.135 171.217 210.219 171.043C210.303 170.869 210.347 170.678 210.347 170.485C210.347 170.291 210.303 170.1 210.219 169.926C210.135 169.752 210.012 169.6 209.86 169.48C209.709 169.36 209.532 169.276 209.343 169.235C209.154 169.193 208.958 169.195 208.77 169.24" fill="white"/>
<path d="M201.84 169.24C201.652 169.195 201.456 169.193 201.267 169.235C201.078 169.276 200.901 169.36 200.75 169.48C200.598 169.6 200.475 169.752 200.391 169.926C200.307 170.1 200.263 170.291 200.263 170.485C200.263 170.678 200.307 170.869 200.391 171.043C200.475 171.217 200.598 171.369 200.75 171.489C200.901 171.609 201.078 171.693 201.267 171.735C201.456 171.776 201.652 171.774 201.84 171.73C202.242 171.738 202.634 171.607 202.95 171.36C203.245 171.707 203.612 171.988 204.024 172.182C204.437 172.377 204.886 172.482 205.342 172.489C205.798 172.497 206.25 172.407 206.669 172.226C207.088 172.045 207.463 171.777 207.77 171.44C208.067 171.633 208.415 171.734 208.77 171.73C208.958 171.774 209.154 171.776 209.343 171.735C209.532 171.693 209.709 171.609 209.86 171.489C210.012 171.369 210.135 171.217 210.219 171.043C210.303 170.869 210.347 170.678 210.347 170.485C210.347 170.291 210.303 170.1 210.219 169.926C210.135 169.752 210.012 169.6 209.86 169.48C209.709 169.36 209.532 169.276 209.343 169.235C209.154 169.193 208.958 169.195 208.77 169.24" stroke="#374956" stroke-width="1.16634" stroke-linecap="round" stroke-linejoin="round"/>
<path d="M203.36 177.07H207.35" stroke="#374956" stroke-width="1.16634" stroke-linecap="round" stroke-linejoin="round"/>
<path d="M191.48 161.27C191.48 161.27 191.62 165.11 192.9 164.11C194.18 163.11 194.6 156.59 193.47 155.74C192.34 154.89 191.48 159.29 191.48 161.27Z" fill="#374956" stroke="#374956" stroke-width="1.16634" stroke-linecap="round" stroke-linejoin="round"/>
<path d="M216.11 161.27C216.11 161.27 216.26 165.11 217.53 164.11C218.8 163.11 219.24 156.59 218.1 155.74C216.96 154.89 216.11 159.29 216.11 161.27Z" fill="#374956" stroke="#374956" stroke-width="1.16634" stroke-linecap="round" stroke-linejoin="round"/>
<path d="M191.48 158.15C191.48 158.15 191.91 158.5 191.9 158.67C193.75 159.67 198 161.51 204.9 161.88C209.794 162.049 214.639 160.862 218.9 158.45C218.9 157.94 218.9 157.64 218.9 157.63C218.73 153.16 215.41 150.18 211.3 149.04C207.26 147.928 202.97 148.141 199.06 149.65C197.078 150.398 195.328 151.657 193.99 153.3C193.48 153.86 190.78 157.59 191.48 158.15Z" fill="#374956" stroke="#374956" stroke-width="1.16634" stroke-linecap="round" stroke-linejoin="round"/>
<path d="M191.92 158.4C196.185 159.343 200.563 159.663 204.92 159.35C213.13 158.97 218.84 158.4 218.84 158.4C215.067 161.937 210.197 164.075 205.04 164.46C202.521 164.623 200.002 164.155 197.71 163.096C195.419 162.038 193.428 160.424 191.92 158.4Z" fill="#17C3B2" stroke="#374956" stroke-width="1.16634" stroke-linecap="round" stroke-linejoin="round"/>
<path d="M170.96 215.78L172.29 225.34L182.62 227.82L193.13 223.62L192.37 215.01L170.96 215.78Z" fill="#374956" stroke="#374956" stroke-width="1.16634" stroke-linecap="round" stroke-linejoin="round"/>
<path d="M181.95 225.34C182.955 225.34 183.77 224.525 183.77 223.52C183.77 222.515 182.955 221.7 181.95 221.7C180.945 221.7 180.13 222.515 180.13 223.52C180.13 224.525 180.945 225.34 181.95 225.34Z" fill="#3A5364" stroke="#374956" stroke-width="1.16634" stroke-linecap="round" stroke-linejoin="round"/>
<path d="M233.76 261.25H173.13V270.79H233.76V261.25Z" fill="#3A5364" stroke="#374956" stroke-width="1.16634" stroke-linecap="round" stroke-linejoin="round"/>
<path d="M184.78 261.81H171.59C170.115 261.81 168.92 263.005 168.92 264.48V270.93C168.92 272.404 170.115 273.6 171.59 273.6H184.78C186.255 273.6 187.45 272.404 187.45 270.93V264.48C187.45 263.005 186.255 261.81 184.78 261.81Z" fill="#17C3B2" stroke="#374956" stroke-width="1.16634" stroke-linecap="round" stroke-linejoin="round"/>
<path d="M233.06 261.81H219.87C218.396 261.81 217.2 263.005 217.2 264.48V270.93C217.2 272.404 218.396 273.6 219.87 273.6H233.06C234.535 273.6 235.73 272.404 235.73 270.93V264.48C235.73 263.005 234.535 261.81 233.06 261.81Z" fill="#17C3B2" stroke="#374956" stroke-width="1.16634" stroke-linecap="round" stroke-linejoin="round"/>
<path d="M211.02 261.81H197.83V270.23H211.02V261.81Z" fill="white" stroke="#374956" stroke-width="1.16634" stroke-linecap="round" stroke-linejoin="round"/>
<path d="M156.281 241.32C156.281 241.32 147.861 240.76 144.771 235.42" stroke="#374956" stroke-width="1.16634" stroke-linecap="round" stroke-linejoin="round"/>
<path d="M249.9 216.62C257.577 216.62 263.8 210.083 263.8 202.02C263.8 193.957 257.577 187.42 249.9 187.42C242.223 187.42 236 193.957 236 202.02C236 210.083 242.223 216.62 249.9 216.62Z" fill="#17C3B2" stroke="#374956" stroke-width="1.16634" stroke-linecap="round" stroke-linejoin="round"/>
<path d="M249.9 204.38C255.909 204.38 260.781 200.015 260.781 194.63C260.781 189.245 255.909 184.88 249.9 184.88C243.892 184.88 239.021 189.245 239.021 194.63C239.021 200.015 243.892 204.38 249.9 204.38Z" fill="#17C3B2" stroke="#374956" stroke-width="1.16634" stroke-linecap="round" stroke-linejoin="round"/>
<path d="M249.9 197.21C255.909 197.21 260.781 192.845 260.781 187.46C260.781 182.075 255.909 177.71 249.9 177.71C243.892 177.71 239.021 182.075 239.021 187.46C239.021 192.845 243.892 197.21 249.9 197.21Z" fill="white" stroke="#374956" stroke-width="1.16634" stroke-linecap="round" stroke-linejoin="round"/>
<path d="M232.42 166.44C232.42 166.44 232.61 180.82 233.34 185.06C234.07 189.3 237.03 194.83 241.09 194.83C243.794 194.763 246.471 194.267 249.02 193.36C249.02 193.36 253.81 195.94 258.42 195.2C263.03 194.46 262.29 188.01 262.29 185.2C262.29 182.39 261.74 161.6 261.74 161.6C261.74 161.6 262.11 159.6 260.26 159.21C259.353 159.005 258.429 158.882 257.5 158.84V154.41C257.16 153.902 256.687 153.498 256.134 153.239C255.581 152.979 254.967 152.876 254.36 152.94C251.97 152.94 251.78 153.49 251.78 153.49V149.43C251.78 149.43 249.78 146.2 247.17 147.77C246.644 148.072 246.201 148.499 245.88 149.014C245.559 149.528 245.37 150.115 245.33 150.72L245.14 154.6C245.14 154.6 240.72 152.94 240.35 155.52C239.98 158.1 239.24 174 239.24 174C238.978 171.5 238.486 169.029 237.77 166.62C236.85 164.22 232.42 164.22 232.42 166.44Z" fill="white" stroke="#374956" stroke-width="1.16634" stroke-linecap="round" stroke-linejoin="round"/>
<path d="M245.141 154.64L245.511 171.6" stroke="#374956" stroke-width="1.16634" stroke-linecap="round" stroke-linejoin="round"/>
<path d="M251.78 153.53L251.97 171.78" stroke="#374956" stroke-width="1.16634" stroke-linecap="round" stroke-linejoin="round"/>
<path d="M257.5 158.88L257.13 171.6" stroke="#374956" stroke-width="1.16634" stroke-linecap="round" stroke-linejoin="round"/>
<path d="M242.75 171.42L259.53 172.15" stroke="#374956" stroke-width="1.16634" stroke-linecap="round" stroke-linejoin="round"/>
<path d="M239.24 174C239.245 174.696 239.411 175.381 239.725 176.002C240.039 176.623 240.493 177.163 241.05 177.58C242.87 178.72 246.97 181.68 247.42 186.46" stroke="#374956" stroke-width="1.16634" stroke-linecap="round" stroke-linejoin="round"/>
<path d="M86.8704 446.5H72.6104L91.6204 313.99H105.88L86.8704 446.5Z" fill="#374956" stroke="#374956" stroke-width="1.16634" stroke-miterlimit="10"/>
<path d="M115.391 446.5H129.641L110.631 313.99H96.3809L115.391 446.5Z" fill="white" stroke="#374956" stroke-width="1.16634" stroke-miterlimit="10"/>
<path d="M289.181 446.5H274.931L293.931 313.99H308.191L289.181 446.5Z" fill="#374956" stroke="#374956" stroke-width="1.16634" stroke-miterlimit="10"/>
<path d="M317.7 446.5H331.95L312.94 313.99H298.69L317.7 446.5Z" fill="white" stroke="#374956" stroke-width="1.16634" stroke-miterlimit="10"/>
<path d="M327.66 293.21H55.7305V319.57H327.66V293.21Z" fill="#17C3B2" stroke="#374956" stroke-width="1.16634" stroke-miterlimit="10"/>
<path d="M334.29 293.21H62.3604V319.57H334.29V293.21Z" fill="#17C3B2" stroke="#374956" stroke-width="1.16634" stroke-miterlimit="10"/>
<path d="M101.046 293.71L89.5674 319.07H67.585L79.0635 293.71H101.046Z" fill="#374956" stroke="#374956"/>
<path d="M157.396 293.71L145.917 319.07H123.935L135.413 293.71H157.396Z" fill="#374956" stroke="#374956"/>
<path d="M326.436 293.71L314.968 319.07H292.986L304.454 293.71H326.436Z" fill="#374956" stroke="#374956"/>
<path d="M270.096 293.71L258.617 319.07H236.636L248.104 293.71H270.096Z" fill="#374956" stroke="#374956"/>
<path d="M213.746 293.71L202.268 319.07H180.285L191.764 293.71H213.746Z" fill="#374956" stroke="#374956"/>
<path d="M332.801 304.9H287.801" stroke="#374956" stroke-width="1.16634" stroke-miterlimit="10"/>
<path d="M332.01 309.31H324.91" stroke="#374956" stroke-width="1.16634" stroke-miterlimit="10"/>
<path d="M61.2109 308.21H106.211" stroke="#374956" stroke-width="1.16634" stroke-miterlimit="10"/>
<path d="M62 303.25H118.84" stroke="#374956" stroke-width="1.16634" stroke-miterlimit="10"/>
<path d="M408.51 440.72H331.37V446.51H408.51V440.72Z" fill="#374956" stroke="#374956" stroke-width="1.16634" stroke-linecap="round" stroke-linejoin="round"/>
<path d="M395.491 440.56H344.391L364.421 331.6H375.461L395.491 440.56Z" fill="#17C3B2" stroke="#374956" stroke-width="1.16634" stroke-linecap="round" stroke-linejoin="round"/>
<path d="M356.98 372.1H382.91L380.42 358.6H359.46L356.98 372.1Z" fill="white" stroke="#374956" stroke-width="1.16634" stroke-linecap="round" stroke-linejoin="round"/>
<path d="M387.811 422.37L389.091 429.82" stroke="#374956" stroke-width="1.16634" stroke-linecap="round" stroke-linejoin="round"/>
<path d="M373.221 337.62L386.201 413" stroke="#374956" stroke-width="1.16634" stroke-linecap="round" stroke-linejoin="round"/>
<path d="M450.01 446.5H456.92" stroke="#374956" stroke-width="1.16634" stroke-linecap="round" stroke-linejoin="round"/>
<path d="M39.3701 446.5H440.36" stroke="#374956" stroke-width="1.16634" stroke-linecap="round" stroke-linejoin="round"/>
</svg>
