<svg width="260" height="40" viewBox="0 0 260 40" fill="none" xmlns="http://www.w3.org/2000/svg">
<path  d="M102.536 18.7192V10.5994C102.536 7.96875 101.272 6.12218 98.7676 6.12218C96.3389 6.12218 94.9983 7.94306 94.9983 10.6498V18.7192H93.2279V10.6246C93.2279 7.91783 91.9126 6.12218 89.4582 6.12218C87.0046 6.12218 85.6898 7.91783 85.6898 10.6246V18.7192H83.9185V4.88257H85.6898V6.4759C86.5243 5.16059 87.9405 4.52839 89.4582 4.52839C91.4566 4.52839 93.1265 5.4643 94.1129 7.18425C95.2007 5.48953 96.744 4.52839 98.7676 4.52839C102.334 4.52839 104.307 7.15901 104.307 10.4223V18.7192H102.536Z" fill="white"/>
<path  d="M118.675 10.8518C118.169 8.06936 115.968 6.12185 113.236 6.12185C110.657 6.12185 108.354 7.99321 107.874 10.8518H118.675ZM107.874 12.4456C108.025 15.2029 110.555 17.4541 113.236 17.4541C115.386 17.4541 117.435 16.2149 118.194 14.1908H120.066C119.003 17.1756 116.221 19.0479 113.261 19.0479C109.34 19.0479 106.052 15.8603 106.052 11.813C106.052 7.79088 109.366 4.52807 113.236 4.52807C117.385 4.52807 120.496 8.09459 120.496 11.9144C120.496 12.0914 120.471 12.2685 120.471 12.4456H107.874Z" fill="white"/>
<path  d="M134.611 11.8129C134.611 8.72675 132.209 6.12136 129.047 6.12136C125.809 6.12136 123.406 8.57489 123.406 11.8386C123.406 15 125.783 17.454 129.072 17.454C132.132 17.454 134.611 14.9496 134.611 11.8129ZM134.51 18.7189V16.2901H134.46C133.245 18.0862 131.222 19.0474 129.072 19.0474C124.923 19.0474 121.635 15.9107 121.635 11.7625C121.635 7.61376 125.024 4.52758 129.072 4.52758C131.222 4.52758 133.271 5.53963 134.46 7.25958H134.51V-8.39233e-05H136.281V18.7189H134.51Z" fill="white"/>
<path  d="M138.734 4.88257H140.505V18.7192H138.734V4.88257ZM138.734 0.000284195H140.505V3.1874H138.734V0.000284195Z" fill="white"/>
<path  d="M156.618 14.6464C155.201 17.4541 152.949 19.0479 149.737 19.0479C145.614 19.0479 142.3 15.9869 142.3 11.6611C142.3 7.86704 145.639 4.52807 149.737 4.52807C152.773 4.52807 155.48 6.22278 156.618 9.05573H154.67C153.633 7.13345 151.786 6.12185 149.788 6.12185C146.6 6.12185 144.071 8.62585 144.071 11.7625C144.071 14.9496 146.575 17.4541 149.788 17.4541C151.887 17.4541 153.683 16.4929 154.67 14.6464H156.618Z" fill="white"/>
<path  d="M170.784 11.8129C170.784 8.72675 168.355 6.12136 165.219 6.12136C162.031 6.12136 159.578 8.55011 159.578 11.8386C159.578 15.0257 161.981 17.454 165.244 17.454C168.33 17.454 170.784 14.9243 170.784 11.8129ZM170.683 18.7189V16.2901H170.632C169.494 18.0105 167.495 19.0474 165.244 19.0474C161.095 19.0474 157.807 15.9107 157.807 11.7625C157.807 7.61376 161.197 4.52758 165.244 4.52758C167.546 4.52758 169.519 5.56487 170.632 7.3105H170.683V4.8822H172.453V18.7189H170.683Z" fill="white"/>
<path  d="M174.78 0.000284195H176.551V18.7192H174.78V0.000284195Z" fill="white"/>
<path  d="M133.857 31.8045C133.351 29.022 131.15 27.0745 128.418 27.0745C125.839 27.0745 123.537 28.9458 123.056 31.8045H133.857ZM123.056 33.3983C123.207 36.1555 125.737 38.4067 128.418 38.4067C130.569 38.4067 132.617 37.1675 133.376 35.1434H135.248C134.186 38.1282 131.403 40.0005 128.444 40.0005C124.522 40.0005 121.234 36.8129 121.234 32.7656C121.234 28.7435 124.548 25.4807 128.418 25.4807C132.567 25.4807 135.678 29.0472 135.678 32.867C135.678 33.0441 135.653 33.2212 135.653 33.3983H123.056Z" fill="white"/>
<path  d="M149.869 32.7656C149.869 29.6794 147.44 27.074 144.303 27.074C141.116 27.074 138.662 29.5027 138.662 32.7913C138.662 35.9784 141.066 38.4067 144.329 38.4067C147.415 38.4067 149.869 35.877 149.869 32.7656ZM149.767 39.6715V37.2428H149.716C148.578 38.9632 146.58 40 144.329 40C140.18 40 136.892 36.8634 136.892 32.7151C136.892 28.5664 140.281 25.4802 144.329 25.4802C146.63 25.4802 148.604 26.5175 149.716 28.2631H149.767V25.8348H151.538V39.6715H149.767Z" fill="white"/>
<path  d="M159.431 29.2495C159.33 27.909 158.495 27.074 157.357 27.074C156.193 27.074 155.258 27.9594 155.258 29.1481C155.258 30.1602 155.965 30.8685 157.661 31.425C161.024 32.538 161.682 33.8786 161.682 35.8517C161.682 38.381 159.988 40 157.332 40C154.954 40 153.082 38.3053 153.082 35.6747V35.5733H154.852C154.878 37.4198 155.839 38.4067 157.332 38.4067C158.925 38.4067 159.912 37.5212 159.912 35.9274C159.912 34.5869 159.052 33.8533 157.458 33.2711C155.03 32.3862 153.486 31.703 153.486 29.3252C153.486 27.0992 155.156 25.4802 157.433 25.4802C159.507 25.4802 161.201 27.0488 161.201 29.2495H159.431Z" fill="white"/>
<path  d="M174.987 31.8045C174.481 29.022 172.28 27.0745 169.548 27.0745C166.969 27.0745 164.666 28.9458 164.186 31.8045H174.987ZM164.186 33.3983C164.337 36.1555 166.867 38.4067 169.548 38.4067C171.699 38.4067 173.747 37.1675 174.506 35.1434H176.378C175.315 38.1282 172.533 40.0005 169.573 40.0005C165.652 40.0005 162.364 36.8129 162.364 32.7656C162.364 28.7435 165.678 25.4807 169.548 25.4807C173.697 25.4807 176.808 29.0472 176.808 32.867C176.808 33.0441 176.783 33.2212 176.783 33.3983H164.186Z" fill="white"/>
<path  d="M132.163 23.8613H124V21.9999H132.163V23.8613Z" fill="#17C3B2"/>
</svg>
