<svg width="48" height="40" viewBox="0 0 48 40" fill="none" xmlns="http://www.w3.org/2000/svg">
<rect width="48" height="40" rx="10" fill="#1D272F"/>
<path d="M38.6065 10.8613H30.4438V8.99989H38.6065V10.8613Z" fill="#17C3B2"/>
<path d="M24.618 27.5566V19.4368C24.618 16.8062 23.3532 14.9596 20.8492 14.9596C18.4204 14.9596 17.0799 16.7805 17.0799 19.4872V27.5566H15.3095V19.462C15.3095 16.7552 13.9942 14.9596 11.5397 14.9596C9.08618 14.9596 7.77132 16.7552 7.77132 19.462V27.5566H6V13.72H7.77132V15.3133C8.60584 13.998 10.0221 13.3658 11.5397 13.3658C13.5381 13.3658 15.2081 14.3017 16.1944 16.0217C17.2822 14.3269 18.8255 13.3658 20.8492 13.3658C24.4157 13.3658 26.3884 15.9964 26.3884 19.2597V27.5566H24.618Z" fill="white"/>
<path d="M40.0383 19.5252C39.5327 16.7427 37.332 14.7952 34.5995 14.7952C32.0203 14.7952 29.7181 16.6665 29.2374 19.5252H40.0383ZM29.2374 21.119C29.3888 23.8762 31.9189 26.1274 34.5995 26.1274C36.7503 26.1274 38.7987 24.8882 39.5575 22.8641H41.4298C40.3673 25.8489 37.5848 27.7212 34.6252 27.7212C30.7041 27.7212 27.416 24.5336 27.416 20.4863C27.416 16.4642 30.7298 13.2014 34.5995 13.2014C38.7487 13.2014 41.8596 16.7679 41.8596 20.5877C41.8596 20.7648 41.8349 20.9419 41.8349 21.119H29.2374Z" fill="white"/>
</svg>
