<svg width="214" height="56" viewBox="0 0 214 56" fill="none" xmlns="http://www.w3.org/2000/svg">
<path d="M0.904297 55.665H41.7208V51.6544H0.904297V55.665Z" fill="#17C3B2"/>
<path d="M41.7197 55.665H82.5349V51.6544H41.7197V55.665Z" fill="#E6B45A"/>
<path d="M82.5381 55.665H123.355V51.6544H82.5381V55.665Z" fill="#80A4ED"/>
<path d="M15.0122 18.7695C14.7876 15.7906 12.932 13.9365 10.4025 13.9365C7.8189 13.9365 5.73869 15.9029 5.73869 18.5448C5.73869 20.7928 7.31133 22.3668 11.0765 23.6025C18.5528 26.0765 20.0131 29.0554 20.0131 33.4391C20.0131 39.0584 16.2479 42.6558 10.347 42.6558C5.06332 42.6558 0.904297 38.8906 0.904297 33.0452V32.8206H4.83866C4.89552 36.9227 7.02981 39.1153 10.347 39.1153C13.8875 39.1153 16.0801 37.1474 16.0801 33.6069C16.0801 30.628 14.1691 28.9985 10.6272 27.706C5.23112 25.7381 1.80433 24.221 1.80433 18.9387C1.80433 13.9919 5.51264 10.3946 10.5717 10.3946C15.18 10.3946 18.9452 13.8796 18.9452 18.7695H15.0122Z" fill="#374956"/>
<path d="M49.4079 26.3567C49.4079 19.6681 44.0118 13.9351 37.2123 13.9351C30.5238 13.9351 25.1277 19.725 25.1277 26.6937C25.1277 33.4377 30.5792 39.1153 37.2678 39.1153C44.181 39.1153 49.4079 33.3822 49.4079 26.3567ZM21.1934 26.7505C21.1934 17.7016 28.5004 10.3946 37.2123 10.3946C46.1475 10.3946 53.3422 17.9263 53.3422 26.5259C53.3422 35.461 45.866 42.6558 37.2123 42.6558C28.5004 42.6558 21.1934 35.2932 21.1934 26.7505Z" fill="#374956"/>
<path d="M56.7715 0.334091H60.7072V41.9243H56.7715V0.334091Z" fill="#374956"/>
<path d="M76.3295 41.9248L63.3477 11.1822H67.5622L78.4097 37.0349L89.4251 11.1822H93.6396L80.6577 41.9248H76.3295Z" fill="#374956"/>
<path d="M121.743 24.4461C120.618 18.2638 115.729 13.9356 109.659 13.9356C103.926 13.9356 98.8118 18.0946 97.744 24.4461H121.743ZM97.744 27.9866C98.0809 34.1135 103.702 39.1157 109.659 39.1157C114.437 39.1157 118.99 36.3616 120.675 31.8655H124.834C122.473 38.4972 116.291 42.6562 109.716 42.6562C101.004 42.6562 93.6973 35.5738 93.6973 26.5818C93.6973 17.6453 101.06 10.3951 109.659 10.3951C118.877 10.3951 125.789 18.3206 125.789 26.8065C125.789 27.2003 125.734 27.5942 125.734 27.9866H97.744Z" fill="#374956"/>
<path d="M129.219 41.9248V11.1822H133.154V15.6213H133.265C134.615 12.4178 136.977 10.676 141.922 10.3944V14.5535H141.865C136.187 15.1151 133.154 18.8248 133.154 23.7716V41.9248H129.219Z" fill="#374956"/>
<path d="M169.742 24.4461C168.617 18.2638 163.728 13.9356 157.658 13.9356C151.925 13.9356 146.811 18.0946 145.743 24.4461H169.742ZM145.743 27.9866C146.08 34.1135 151.701 39.1157 157.658 39.1157C162.436 39.1157 166.989 36.3616 168.674 31.8655H172.833C170.472 38.4972 164.29 42.6562 157.715 42.6562C149.003 42.6562 141.696 35.5738 141.696 26.5818C141.696 17.6453 149.059 10.3951 157.658 10.3951C166.876 10.3951 173.788 18.3206 173.788 26.8065C173.788 27.2003 173.733 27.5942 173.733 27.9866H145.743Z" fill="#374956"/>
<path d="M177.217 11.1817H181.153V41.9243H177.217V11.1817ZM177.217 0.334091H181.153V7.41511H177.217V0.334091Z" fill="#374956"/>
<path d="M209.028 41.9248V24.7825C209.028 17.8693 204.869 13.935 199.473 13.935C193.515 13.935 189.863 18.4878 189.863 24.5024V41.9248H185.928V11.1822H189.863V15.1151H189.974C191.942 12.1377 195.426 10.3944 199.416 10.3944C207.903 10.3944 212.962 16.2398 212.962 24.7825V41.9248H209.028Z" fill="#374956"/>
</svg>
